# xmcd
#
# Track frame offsets:
#	150
#	29020
#	62565
#	103710
#	128807
#	161937
#	178417
#	227420
#	252482
#
# Disc length: 4058 seconds
#
# Revision: 1
# Processed by: cddbd v1.4PL0 Copyright (c) Steve Scherf et al.
# Submitted via: audiograbber 1.82.01
#
DISCID=7f0fd809
DTITLE=Prysm - On Tour
DYEAR=2001
DGENRE=Jazz
TTITLE0=Secret World
TTITLE1=Extension
TTITLE2=Temps Dense
TTITLE3=Voice Of Angels
TTITLE4=The Way
TTITLE5=Suspend Time
TTITLE6=Reflection
TTITLE7=Patience
TTITLE8=Un Des Sens
EXTD=Blue Note - 7243 531575 2 4
EXTT0=
EXTT1=
EXTT2=
EXTT3=
EXTT4=
EXTT5=
EXTT6=
EXTT7=
EXTT8=
PLAYORDER=
